<svg xmlns="http://www.w3.org/2000/svg" version="1.1" xmlns:xlink="http://www.w3.org/1999/xlink" width="200" height="200"><svg xmlns="http://www.w3.org/2000/svg" version="1.1" xmlns:xlink="http://www.w3.org/1999/xlink" viewBox="0 0 200 200"><rect width="200" height="200" fill="url('#gradient')"></rect><defs><linearGradient id="SvgjsLinearGradient1001" gradientTransform="rotate(0 0.5 0.5)"><stop offset="0%" stop-color="#0c85e8"></stop><stop offset="100%" stop-color="#54e342"></stop></linearGradient></defs><g><g fill="#d3e719" transform="matrix(4.908973984215142,0,0,4.908973984215142,15.495099134746255,136.32875160598087)" stroke="#1b3855" stroke-width="0.2"><path d="M0.51-5.36L0.51-5.36Q0.51-7.87 1.59-9.32Q2.68-10.76 4.62-10.76L4.62-10.76Q6.04-10.76 7.00-9.65L7.00-9.65L7.00-15L10.30-15L10.30 0L7.34 0L7.18-1.13Q6.16 0.20 4.60 0.20L4.60 0.20Q2.71 0.20 1.61-1.25Q0.51-2.70 0.51-5.36ZM3.81-5.76L3.80-5.16Q3.80-2.34 5.44-2.34L5.44-2.34Q6.53-2.34 7.00-3.26L7.00-3.26L7.00-7.29Q6.55-8.22 5.46-8.22L5.46-8.22Q3.94-8.22 3.81-5.76L3.81-5.76ZM20.12 0L17.61-5.02L15.75-5.02L15.75 0L12.32 0L12.32-14.22L17.92-14.22Q20.45-14.22 21.88-13.10Q23.30-11.97 23.30-9.92L23.30-9.92Q23.30-8.44 22.70-7.46Q22.10-6.48 20.82-5.88L20.82-5.88L23.79-0.15L23.79 0L20.12 0ZM15.75-11.57L15.75-7.67L17.92-7.67Q18.90-7.67 19.39-8.18Q19.88-8.69 19.88-9.61Q19.88-10.53 19.38-11.05Q18.89-11.57 17.92-11.57L17.92-11.57L15.75-11.57ZM33.81-8.79L29.10-2.54L33.92-2.54L33.92 0L24.94 0L24.94-1.84L29.63-8.03L25.15-8.03L25.15-10.57L33.81-10.57L33.81-8.79Z"></path></g></g></svg><style>@media (prefers-color-scheme: light) { :root { filter: none; } }
@media (prefers-color-scheme: dark) { :root { filter: none; } }
</style></svg>